<svg width="283" height="97" viewBox="0 0 283 97" fill="none" xmlns="http://www.w3.org/2000/svg">
<g filter="url(#filter0_d_1231_780)">
<path d="M187.312 55.864C184.144 55.864 181 55.336 177.88 54.28C174.76 53.176 172.072 51.88 169.816 50.392L174.352 43.768C176.512 45.16 178.792 46.216 181.192 46.936C183.64 47.656 186.16 48.016 188.752 48.016C190.72 48.016 192.16 47.728 193.072 47.152C193.984 46.528 194.44 45.808 194.44 44.992C194.44 44.464 194.296 44.032 194.008 43.696C193.768 43.312 193.312 42.976 192.64 42.688C192.016 42.352 191.128 42.04 189.976 41.752C188.872 41.464 187.432 41.128 185.656 40.744C180.808 39.688 177.328 38.248 175.216 36.424C173.104 34.6 172.048 32.32 172.048 29.584C172.048 26.224 173.512 23.536 176.44 21.52C179.368 19.456 183.376 18.424 188.464 18.424C191.68 18.424 194.584 18.952 197.176 20.008C199.816 21.016 202.072 22.12 203.944 23.32L199.192 29.656C197.416 28.552 195.52 27.712 193.504 27.136C191.488 26.56 189.496 26.272 187.528 26.272C186.424 26.272 185.512 26.392 184.792 26.632C184.072 26.824 183.52 27.16 183.136 27.64C182.752 28.072 182.56 28.552 182.56 29.08C182.56 30.04 183.184 30.76 184.432 31.24C185.68 31.672 187.816 32.224 190.84 32.896C194.488 33.712 197.344 34.648 199.408 35.704C201.472 36.76 202.888 37.984 203.656 39.376C204.472 40.72 204.88 42.376 204.88 44.344C204.88 46.504 204.208 48.448 202.864 50.176C201.568 51.904 199.6 53.296 196.96 54.352C194.368 55.36 191.152 55.864 187.312 55.864ZM202.116 55V4.528H212.7V16.912L212.124 23.752H212.34C213.684 22.36 215.316 21.136 217.236 20.08C219.204 18.976 221.532 18.424 224.22 18.424C228.252 18.424 231.18 19.72 233.004 22.312C234.876 24.904 235.812 28.456 235.812 32.968V55H225.228V34.336C225.228 31.936 224.82 30.184 224.004 29.08C223.236 27.976 221.892 27.424 219.972 27.424C218.532 27.424 217.26 27.76 216.156 28.432C215.1 29.056 213.948 29.968 212.7 31.168V55H202.116Z" fill="#1D4ED8"/>
<path d="M5.184 68.248V19.288H13.824L14.616 22.888H14.832C16.32 21.592 17.976 20.536 19.8 19.72C21.672 18.856 23.568 18.424 25.488 18.424C28.464 18.424 31.008 19.168 33.12 20.656C35.28 22.144 36.936 24.256 38.088 26.992C39.24 29.728 39.816 32.92 39.816 36.568C39.816 40.648 39.072 44.128 37.584 47.008C36.144 49.888 34.248 52.096 31.896 53.632C29.544 55.12 27.024 55.864 24.336 55.864C22.752 55.864 21.192 55.528 19.656 54.856C18.168 54.184 16.8 53.224 15.552 51.976H15.264L15.768 57.808V68.248H5.184ZM21.888 47.224C23.232 47.224 24.432 46.864 25.488 46.144C26.544 45.424 27.384 44.296 28.008 42.76C28.632 41.176 28.944 39.16 28.944 36.712C28.944 34.552 28.704 32.776 28.224 31.384C27.744 29.944 27.024 28.864 26.064 28.144C25.152 27.424 23.928 27.064 22.392 27.064C21.24 27.064 20.112 27.328 19.008 27.856C17.952 28.336 16.872 29.176 15.768 30.376V44.848C16.776 45.664 17.808 46.264 18.864 46.648C19.968 47.032 20.976 47.224 21.888 47.224ZM39.2839 55V19.288H47.9239L48.7879 27.064H49.0039C50.7799 24.136 52.9159 21.976 55.4119 20.584C57.9559 19.144 60.6439 18.424 63.4759 18.424C65.0599 18.424 66.3319 18.544 67.2919 18.784C68.2999 19.024 69.3319 19.384 70.3879 19.864L68.2279 28.72C67.1239 28.384 66.1159 28.144 65.2039 28C64.3399 27.808 63.2359 27.712 61.8919 27.712C59.6839 27.712 57.4999 28.36 55.3399 29.656C53.2279 30.952 51.4039 33.208 49.8679 36.424V55H39.2839ZM83.4638 55.864C80.3438 55.864 77.3918 55.144 74.6078 53.704C71.8238 52.216 69.5678 50.08 67.8398 47.296C66.1118 44.464 65.2478 41.08 65.2478 37.144C65.2478 33.208 66.1118 29.848 67.8398 27.064C69.5678 24.232 71.8238 22.096 74.6078 20.656C77.3918 19.168 80.3438 18.424 83.4638 18.424C86.5838 18.424 89.5358 19.168 92.3198 20.656C95.1038 22.096 97.3598 24.232 99.0878 27.064C100.816 29.848 101.68 33.208 101.68 37.144C101.68 41.08 100.816 44.464 99.0878 47.296C97.3598 50.08 95.1038 52.216 92.3198 53.704C89.5358 55.144 86.5838 55.864 83.4638 55.864ZM83.4638 47.296C85.0958 47.296 86.4398 46.888 87.4958 46.072C88.5998 45.256 89.4158 44.08 89.9438 42.544C90.5198 41.008 90.8078 39.208 90.8078 37.144C90.8078 35.08 90.5198 33.28 89.9438 31.744C89.4158 30.208 88.5998 29.032 87.4958 28.216C86.4398 27.4 85.0958 26.992 83.4638 26.992C81.8318 26.992 80.4638 27.4 79.3598 28.216C78.3038 29.032 77.4878 30.208 76.9118 31.744C76.3838 33.28 76.1198 35.08 76.1198 37.144C76.1198 39.208 76.3838 41.008 76.9118 42.544C77.4878 44.08 78.3038 45.256 79.3598 46.072C80.4638 46.888 81.8318 47.296 83.4638 47.296ZM117.132 55.864C115.5 55.864 113.82 55.456 112.092 54.64C110.412 53.824 108.852 52.648 107.412 51.112H107.124L106.26 55H97.9796V4.528H108.564V16.912L108.204 22.528H108.42C109.812 21.232 111.348 20.224 113.028 19.504C114.756 18.784 116.484 18.424 118.212 18.424C121.236 18.424 123.804 19.168 125.916 20.656C128.076 22.144 129.732 24.256 130.884 26.992C132.036 29.68 132.612 32.848 132.612 36.496C132.612 40.576 131.868 44.08 130.38 47.008C128.94 49.888 127.044 52.096 124.692 53.632C122.34 55.12 119.82 55.864 117.132 55.864ZM114.756 47.224C116.052 47.224 117.228 46.864 118.284 46.144C119.34 45.424 120.18 44.296 120.804 42.76C121.428 41.176 121.74 39.16 121.74 36.712C121.74 34.552 121.5 32.776 121.02 31.384C120.54 29.944 119.82 28.864 118.86 28.144C117.948 27.424 116.724 27.064 115.188 27.064C114.036 27.064 112.908 27.328 111.804 27.856C110.748 28.336 109.668 29.176 108.564 30.376V44.848C109.572 45.664 110.604 46.264 111.66 46.648C112.764 47.032 113.796 47.224 114.756 47.224ZM147.488 55.864C143.792 55.864 140.432 55.144 137.408 53.704C134.432 52.216 132.056 50.08 130.28 47.296C128.552 44.464 127.688 41.08 127.688 37.144C127.688 33.256 128.576 29.92 130.352 27.136C132.128 24.304 134.432 22.144 137.264 20.656C140.096 19.168 143.096 18.424 146.264 18.424C149.96 18.424 153.056 19.192 155.552 20.728C158.048 22.216 159.92 24.256 161.168 26.848C162.464 29.392 163.112 32.296 163.112 35.56C163.112 36.52 163.04 37.456 162.896 38.368C162.8 39.232 162.704 39.88 162.608 40.312H135.536V33.184H155.48L153.824 35.2C153.824 32.32 153.2 30.16 151.952 28.72C150.752 27.232 148.976 26.488 146.624 26.488C144.896 26.488 143.384 26.872 142.088 27.64C140.792 28.408 139.784 29.584 139.064 31.168C138.344 32.752 137.984 34.744 137.984 37.144C137.984 39.592 138.416 41.608 139.28 43.192C140.144 44.728 141.392 45.88 143.024 46.648C144.656 47.416 146.624 47.8 148.928 47.8C150.56 47.8 152.096 47.584 153.536 47.152C155.024 46.72 156.56 46.096 158.144 45.28L161.672 51.688C159.608 52.984 157.328 54.016 154.832 54.784C152.336 55.504 149.888 55.864 147.488 55.864Z" fill="black"/>
<circle cx="166.5" cy="54.5" r="3.5" fill="#1B140E"/>
<path fill-rule="evenodd" clip-rule="evenodd" d="M171.593 58C178.773 64.0725 171.34 77.531 173.963 82.9651C168.572 75.1112 175.917 68.3616 171.593 58Z" fill="#C25700"/>
<path fill-rule="evenodd" clip-rule="evenodd" d="M175.097 69.8256C180.03 72.8189 174.109 79.8324 177.261 81.6277C180.454 83.446 180.092 75.8895 184.5 77.8279C179.911 76.3697 181.815 85.3663 176.128 84.169C169.619 82.7989 177.713 73.1316 175.097 69.8256Z" fill="#8D1E00"/>
<path fill-rule="evenodd" clip-rule="evenodd" d="M148.361 80.0815C157.339 72.8227 169.569 84.471 175.34 85.1989C182.763 86.1348 180.785 77.4271 184.5 77.7515C181.077 78.1704 183.132 87.2772 175.479 87.5586C167.144 87.8651 158.829 74.9711 148.361 80.0815Z" fill="#1B140E"/>
<path d="M135.665 83.18C135.335 83.18 134.995 83.1 134.645 82.94C134.305 82.77 133.975 82.53 133.655 82.22H133.61L133.46 83H132.095V72.41H133.82V75.14L133.775 76.37C134.085 76.1 134.42 75.88 134.78 75.71C135.15 75.54 135.525 75.455 135.905 75.455C136.515 75.455 137.035 75.61 137.465 75.92C137.905 76.23 138.24 76.665 138.47 77.225C138.7 77.775 138.815 78.43 138.815 79.19C138.815 80.03 138.665 80.75 138.365 81.35C138.065 81.94 137.675 82.395 137.195 82.715C136.725 83.025 136.215 83.18 135.665 83.18ZM135.305 81.755C135.635 81.755 135.93 81.66 136.19 81.47C136.45 81.28 136.655 81 136.805 80.63C136.955 80.25 137.03 79.78 137.03 79.22C137.03 78.73 136.975 78.31 136.865 77.96C136.755 77.61 136.58 77.345 136.34 77.165C136.11 76.975 135.81 76.88 135.44 76.88C135.17 76.88 134.905 76.95 134.645 77.09C134.385 77.22 134.11 77.425 133.82 77.705V81.14C134.08 81.36 134.34 81.52 134.6 81.62C134.86 81.71 135.095 81.755 135.305 81.755ZM140.204 86.03C140.004 86.03 139.824 86.015 139.664 85.985C139.514 85.955 139.374 85.91 139.244 85.85L139.574 84.56C139.674 84.59 139.764 84.61 139.844 84.62C139.924 84.63 140.004 84.635 140.084 84.635C140.474 84.635 140.784 84.515 141.014 84.275C141.254 84.035 141.434 83.735 141.554 83.375L141.689 82.91L138.794 75.635H140.549L141.824 79.25C141.934 79.57 142.039 79.91 142.139 80.27C142.249 80.62 142.359 80.97 142.469 81.32H142.529C142.619 80.98 142.709 80.635 142.799 80.285C142.899 79.925 142.994 79.58 143.084 79.25L144.194 75.635H145.859L143.189 83.33C142.989 83.88 142.759 84.355 142.499 84.755C142.239 85.165 141.924 85.48 141.554 85.7C141.184 85.92 140.734 86.03 140.204 86.03Z" fill="#1B140E"/>
<path d="M188.245 83V73.19H194.17V74.66H189.985V77.435H193.555V78.905H189.985V83H188.245ZM194.991 83V75.635H196.716V83H194.991ZM195.846 74.345C195.546 74.345 195.296 74.255 195.096 74.075C194.906 73.895 194.811 73.655 194.811 73.355C194.811 73.055 194.906 72.82 195.096 72.65C195.296 72.47 195.546 72.38 195.846 72.38C196.156 72.38 196.406 72.47 196.596 72.65C196.786 72.82 196.881 73.055 196.881 73.355C196.881 73.655 196.786 73.895 196.596 74.075C196.406 74.255 196.156 74.345 195.846 74.345ZM198.167 83V75.635H199.592L199.712 76.94H199.772C200.032 76.46 200.342 76.095 200.702 75.845C201.072 75.585 201.457 75.455 201.857 75.455C202.047 75.455 202.207 75.465 202.337 75.485C202.467 75.505 202.587 75.545 202.697 75.605L202.352 77.075C202.232 77.045 202.122 77.025 202.022 77.015C201.922 76.995 201.792 76.985 201.632 76.985C201.342 76.985 201.037 77.1 200.717 77.33C200.397 77.55 200.122 77.94 199.892 78.5V83H198.167ZM206.031 83.18C205.341 83.18 204.716 83.03 204.156 82.73C203.606 82.42 203.171 81.98 202.851 81.41C202.531 80.83 202.371 80.13 202.371 79.31C202.371 78.51 202.536 77.825 202.866 77.255C203.196 76.675 203.621 76.23 204.141 75.92C204.661 75.61 205.211 75.455 205.791 75.455C206.461 75.455 207.021 75.605 207.471 75.905C207.921 76.205 208.256 76.62 208.476 77.15C208.706 77.67 208.821 78.27 208.821 78.95C208.821 79.11 208.811 79.265 208.791 79.415C208.781 79.565 208.761 79.71 208.731 79.85H203.661V78.53H207.291C207.291 78 207.171 77.585 206.931 77.285C206.691 76.975 206.321 76.82 205.821 76.82C205.541 76.82 205.266 76.895 204.996 77.045C204.736 77.195 204.516 77.45 204.336 77.81C204.166 78.17 204.081 78.67 204.081 79.31C204.081 79.89 204.181 80.365 204.381 80.735C204.581 81.095 204.846 81.365 205.176 81.545C205.506 81.715 205.861 81.8 206.241 81.8C206.561 81.8 206.861 81.755 207.141 81.665C207.431 81.575 207.701 81.45 207.951 81.29L208.551 82.4C208.211 82.64 207.821 82.83 207.381 82.97C206.951 83.11 206.501 83.18 206.031 83.18ZM209.075 83V82.07L212.555 77H209.465V75.635H214.715V76.55L211.25 81.62H214.835V83H209.075ZM218.429 83.18C217.819 83.18 217.249 83.03 216.719 82.73C216.189 82.42 215.759 81.98 215.429 81.41C215.099 80.83 214.934 80.135 214.934 79.325C214.934 78.505 215.099 77.81 215.429 77.24C215.759 76.66 216.189 76.22 216.719 75.92C217.249 75.61 217.819 75.455 218.429 75.455C219.049 75.455 219.624 75.61 220.154 75.92C220.684 76.22 221.114 76.66 221.444 77.24C221.774 77.81 221.939 78.505 221.939 79.325C221.939 80.135 221.774 80.83 221.444 81.41C221.114 81.98 220.684 82.42 220.154 82.73C219.624 83.03 219.049 83.18 218.429 83.18ZM218.429 81.77C218.789 81.77 219.099 81.67 219.359 81.47C219.619 81.27 219.819 80.985 219.959 80.615C220.099 80.245 220.169 79.815 220.169 79.325C220.169 78.835 220.099 78.405 219.959 78.035C219.819 77.665 219.619 77.38 219.359 77.18C219.099 76.97 218.789 76.865 218.429 76.865C218.069 76.865 217.759 76.97 217.499 77.18C217.249 77.38 217.054 77.665 216.914 78.035C216.774 78.405 216.704 78.835 216.704 79.325C216.704 79.815 216.774 80.245 216.914 80.615C217.054 80.985 217.249 81.27 217.499 81.47C217.759 81.67 218.069 81.77 218.429 81.77ZM222.897 83V75.635H224.322L224.442 76.625H224.502C224.832 76.305 225.192 76.03 225.582 75.8C225.972 75.57 226.417 75.455 226.917 75.455C227.707 75.455 228.282 75.71 228.642 76.22C229.002 76.73 229.182 77.45 229.182 78.38V83H227.457V78.605C227.457 77.995 227.367 77.565 227.187 77.315C227.007 77.065 226.712 76.94 226.302 76.94C225.982 76.94 225.697 77.02 225.447 77.18C225.207 77.33 224.932 77.555 224.622 77.855V83H222.897ZM233.705 83.18C233.015 83.18 232.39 83.03 231.83 82.73C231.28 82.42 230.845 81.98 230.525 81.41C230.205 80.83 230.045 80.13 230.045 79.31C230.045 78.51 230.21 77.825 230.54 77.255C230.87 76.675 231.295 76.23 231.815 75.92C232.335 75.61 232.885 75.455 233.465 75.455C234.135 75.455 234.695 75.605 235.145 75.905C235.595 76.205 235.93 76.62 236.15 77.15C236.38 77.67 236.495 78.27 236.495 78.95C236.495 79.11 236.485 79.265 236.465 79.415C236.455 79.565 236.435 79.71 236.405 79.85H231.335V78.53H234.965C234.965 78 234.845 77.585 234.605 77.285C234.365 76.975 233.995 76.82 233.495 76.82C233.215 76.82 232.94 76.895 232.67 77.045C232.41 77.195 232.19 77.45 232.01 77.81C231.84 78.17 231.755 78.67 231.755 79.31C231.755 79.89 231.855 80.365 232.055 80.735C232.255 81.095 232.52 81.365 232.85 81.545C233.18 81.715 233.535 81.8 233.915 81.8C234.235 81.8 234.535 81.755 234.815 81.665C235.105 81.575 235.375 81.45 235.625 81.29L236.225 82.4C235.885 82.64 235.495 82.83 235.055 82.97C234.625 83.11 234.175 83.18 233.705 83.18Z" fill="#1B140E"/>
</g>
<defs>
<filter id="filter0_d_1231_780" x="-2" y="0" width="287" height="101" filterUnits="userSpaceOnUse" color-interpolation-filters="sRGB">
<feFlood flood-opacity="0" result="BackgroundImageFix"/>
<feColorMatrix in="SourceAlpha" type="matrix" values="0 0 0 0 0 0 0 0 0 0 0 0 0 0 0 0 0 0 127 0" result="hardAlpha"/>
<feOffset dy="2"/>
<feGaussianBlur stdDeviation="1"/>
<feComposite in2="hardAlpha" operator="out"/>
<feColorMatrix type="matrix" values="0 0 0 0 0 0 0 0 0 0 0 0 0 0 0 0 0 0 0.25 0"/>
<feBlend mode="normal" in2="BackgroundImageFix" result="effect1_dropShadow_1231_780"/>
<feBlend mode="normal" in="SourceGraphic" in2="effect1_dropShadow_1231_780" result="shape"/>
</filter>
</defs>
</svg>
